<svg id="Layer_1" data-name="Layer 1" xmlns="http://www.w3.org/2000/svg" viewBox="0 0 3301.48 8047.92"><defs><style>.cls-1{fill:#f3f1ec;}.cls-2{font-size:139.74px;font-family:Poppins-Black, Poppins;}.cls-14,.cls-2{font-weight:800;}.cls-10,.cls-13,.cls-3,.cls-4,.cls-6,.cls-8{fill:none;}.cls-10,.cls-11,.cls-13,.cls-3,.cls-6,.cls-7{stroke:#000;}.cls-10,.cls-11,.cls-13,.cls-3,.cls-4,.cls-6,.cls-7,.cls-8{stroke-miterlimit:10;}.cls-3,.cls-4{stroke-width:8px;}.cls-4,.cls-8{stroke:#f3f1ec;}.cls-5{font-size:74.83px;}.cls-15,.cls-18,.cls-5{font-family:Poppins-Bold, Poppins;font-weight:700;}.cls-6,.cls-7{stroke-width:4.13px;}.cls-8{stroke-width:8.27px;}.cls-9{font-size:41.34px;}.cls-12,.cls-9{font-family:Poppins-SemiBold, Poppins;font-weight:600;}.cls-10,.cls-11{stroke-width:4px;}.cls-12,.cls-17{font-size:38px;}.cls-13{stroke-width:4.42px;}.cls-14{font-size:120.19px;font-family:Poppins-ExtraBold, Poppins;}.cls-15{font-size:81px;}.cls-16{font-size:70px;}.cls-17,.cls-19,.cls-20{font-family:Poppins-Medium, Poppins;font-weight:500;}.cls-18{font-size:73.79px;}.cls-19{font-size:39.88px;}.cls-20{font-size:36.82px;}</style></defs><title>slide1</title><rect class="cls-1" x="2847.48" width="184" height="184"/><rect x="3117.48" width="184" height="184"/><rect class="cls-1" x="0.48" y="6967.92" width="1920" height="1080"/><rect class="cls-1" x="0.48" y="5844.72" width="1920" height="1080"/><rect class="cls-1" x="0.48" y="4730.16" width="1920" height="1080"/><rect class="cls-1" y="3638.64" width="1920" height="1080"/><rect class="cls-1" x="0.48" y="246" width="1920" height="1080"/><text class="cls-2" transform="translate(317.62 684.69)">SOCIAL NETWORK<tspan x="255.58" y="167.69">DATABASE</tspan></text><rect class="cls-3" x="222.98" y="461.5" width="1475" height="480"/><rect class="cls-3" x="423.04" y="1024.5" width="1075.88" height="86"/><path d="M763.21,836.49h11.63V841H757.57V806.66h5.64Z" transform="translate(0.48 246)"/><path d="M785.17,811.21V821.3h11.88v4.6H785.17v10.54h13.36V841h-19V806.61h19v4.6Z" transform="translate(0.48 246)"/><path d="M827.67,806.66v4.6h-9.15V841h-5.64V811.26h-9.2v-4.6Z" transform="translate(0.48 246)"/><path d="M836.43,801.61l-.6,10.14H832l-.64-10.14Z" transform="translate(0.48 246)"/><path d="M847,840.18a10.28,10.28,0,0,1-4.35-3.44,8.72,8.72,0,0,1-1.58-5.2h6a5.41,5.41,0,0,0,1.76,3.66,6.22,6.22,0,0,0,4.38,1.44,6.75,6.75,0,0,0,4.55-1.41,4.58,4.58,0,0,0,1.63-3.64,4,4,0,0,0-1-2.82,6.93,6.93,0,0,0-2.53-1.68,38.46,38.46,0,0,0-4.18-1.29,38.71,38.71,0,0,1-5.46-1.8,9,9,0,0,1-3.59-2.85,8.2,8.2,0,0,1-1.48-5.14,9.17,9.17,0,0,1,1.48-5.2,9.46,9.46,0,0,1,4.16-3.41,15.11,15.11,0,0,1,6.18-1.19,12.94,12.94,0,0,1,8.19,2.5,9.24,9.24,0,0,1,3.53,6.85h-6.23a4.51,4.51,0,0,0-1.78-3.21,6.58,6.58,0,0,0-4.3-1.34,6.07,6.07,0,0,0-4,1.24,4.31,4.31,0,0,0-1.54,3.56,3.64,3.64,0,0,0,1,2.6,6.93,6.93,0,0,0,2.45,1.61,39.43,39.43,0,0,0,4.05,1.28,43.49,43.49,0,0,1,5.57,1.88,9.23,9.23,0,0,1,3.66,2.9,8.28,8.28,0,0,1,1.51,5.22,9.38,9.38,0,0,1-1.41,4.94,10.18,10.18,0,0,1-4.11,3.74,13.49,13.49,0,0,1-6.35,1.41A15.57,15.57,0,0,1,847,840.18Z" transform="translate(0.48 246)"/><path d="M907.42,821.85a9.3,9.3,0,0,1-4,3.78,14.72,14.72,0,0,1-7,1.46h-6.23V841h-5.64V806.66h11.87a15,15,0,0,1,6.71,1.36,9.41,9.41,0,0,1,4.1,3.68,10.12,10.12,0,0,1,1.36,5.2A10.43,10.43,0,0,1,907.42,821.85Zm-6.14-.82a5.32,5.32,0,0,0,1.59-4.13q0-5.64-6.39-5.64h-6.23v11.23h6.23A6.87,6.87,0,0,0,901.28,821Z" transform="translate(0.48 246)"/><path d="M931.91,841,924,827.29h-4.3V841h-5.64V806.66h11.87a14.79,14.79,0,0,1,6.7,1.38,9.68,9.68,0,0,1,4.11,3.71,10.09,10.09,0,0,1,1.36,5.2,10.26,10.26,0,0,1-2,6.11,9.89,9.89,0,0,1-6,3.73L938.63,841Zm-12.22-18.25h6.23a6.51,6.51,0,0,0,4.77-1.59A5.69,5.69,0,0,0,932.3,817a5.51,5.51,0,0,0-1.58-4.18,6.73,6.73,0,0,0-4.8-1.51h-6.23Z" transform="translate(0.48 246)"/><path d="M952.16,839.14a16.68,16.68,0,0,1-6.38-6.29,18.66,18.66,0,0,1,0-18.13,16.82,16.82,0,0,1,6.38-6.26,18.55,18.55,0,0,1,17.71,0,16.63,16.63,0,0,1,6.36,6.26,18.8,18.8,0,0,1,0,18.13,16.5,16.5,0,0,1-6.36,6.29,18.55,18.55,0,0,1-17.71,0Zm14.92-4.21a10.83,10.83,0,0,0,4.18-4.45,15.57,15.57,0,0,0,0-13.38,10.73,10.73,0,0,0-4.18-4.41,12.87,12.87,0,0,0-12.17,0,10.66,10.66,0,0,0-4.18,4.41,15.57,15.57,0,0,0,0,13.38,10.77,10.77,0,0,0,4.18,4.45,12.65,12.65,0,0,0,12.17,0Z" transform="translate(0.48 246)"/><path d="M984.57,814.72a16.75,16.75,0,0,1,6.38-6.26,18.75,18.75,0,0,1,18.6.45,15.43,15.43,0,0,1,6.21,7.64H1009a9.1,9.1,0,0,0-3.71-4,11,11,0,0,0-5.49-1.34,12.05,12.05,0,0,0-6.09,1.53,10.73,10.73,0,0,0-4.18,4.41,15.6,15.6,0,0,0,0,13.35,10.84,10.84,0,0,0,4.18,4.43,11.87,11.87,0,0,0,6.09,1.56,10.89,10.89,0,0,0,5.49-1.34,9.1,9.1,0,0,0,3.71-4.05h6.78a15.25,15.25,0,0,1-6.21,7.62,18.06,18.06,0,0,1-9.77,2.67,17.82,17.82,0,0,1-8.86-2.25,16.74,16.74,0,0,1-6.35-6.26,18.62,18.62,0,0,1,0-18.11Z" transform="translate(0.48 246)"/><path d="M1028,811.21V821.3h11.87v4.6H1028v10.54h13.36V841h-19V806.61h19v4.6Z" transform="translate(0.48 246)"/><path d="M1053.9,811.21V821.3h11.87v4.6H1053.9v10.54h13.36V841h-19V806.61h19v4.6Z" transform="translate(0.48 246)"/><path d="M1095,808.76a15,15,0,0,1,6.38,6,18.14,18.14,0,0,1,2.25,9.17,17.79,17.79,0,0,1-2.25,9.11A14.9,14.9,0,0,1,1095,839a21.4,21.4,0,0,1-9.63,2h-11.23V806.66h11.23A21,21,0,0,1,1095,808.76Zm-.37,24.42q3.21-3.27,3.21-9.21t-3.21-9.35q-3.23-3.36-9.26-3.36h-5.59v25.18h5.59Q1091.46,836.44,1094.67,833.18Z" transform="translate(0.48 246)"/><path d="M1127.76,806.66V841h-5.64V806.66Z" transform="translate(0.48 246)"/><path d="M1163.43,841h-5.64l-17-25.67V841h-5.64V806.61h5.64l17,25.63V806.61h5.64Z" transform="translate(0.48 246)"/><rect x="1412.92" y="1024.5" width="86" height="86"/><polyline class="cls-4" points="1443.27 1042.21 1468.57 1067.5 1443.27 1092.79"/><rect class="cls-1" x="0.48" y="1372.08" width="1920" height="1080"/><text class="cls-5" transform="translate(601.32 1677.94)">YOUSEF MAHMOUD</text><rect class="cls-1" x="0.48" y="2495.28" width="1920" height="1080"/><rect x="97.08" y="2565.2" width="1726.8" height="136.08"/><path class="cls-1" d="M632,2358v11H617v45.49H603.23V2369h-15v-11Z" transform="translate(0.48 246)"/><path class="cls-1" d="M638.79,2379.78a19.54,19.54,0,0,1,7.12-8.06,18.68,18.68,0,0,1,10.07-2.81,17.28,17.28,0,0,1,8.33,1.93,14.28,14.28,0,0,1,5.52,5.07v-6.36H683.6v44.93H669.83v-6.36a14.83,14.83,0,0,1-5.6,5.08,17.39,17.39,0,0,1-8.33,1.93,18.26,18.26,0,0,1-10-2.86,19.81,19.81,0,0,1-7.12-8.13,27.07,27.07,0,0,1-2.62-12.2A26.78,26.78,0,0,1,638.79,2379.78Zm28.18,4.1a9.67,9.67,0,0,0-13.93,0q-2.87,2.94-2.86,8.1a11.38,11.38,0,0,0,2.86,8.17,9.59,9.59,0,0,0,13.93,0,13,13,0,0,0,0-16.27Z" transform="translate(0.48 246)"/><path class="cls-1" d="M712.91,2370.84a17.31,17.31,0,0,1,8.29-1.93,18.68,18.68,0,0,1,10.07,2.81,19.63,19.63,0,0,1,7.13,8.06,26.91,26.91,0,0,1,2.61,12.16,27.2,27.2,0,0,1-2.61,12.2,19.9,19.9,0,0,1-7.13,8.13,18.39,18.39,0,0,1-10.07,2.86,17.34,17.34,0,0,1-8.29-1.89,14.6,14.6,0,0,1-5.56-5v6.28H693.58v-59.59h13.77v21A14.2,14.2,0,0,1,712.91,2370.84Zm11.23,13a9.46,9.46,0,0,0-7-2.94,9.32,9.32,0,0,0-7,3,13,13,0,0,0,0,16.27,9.63,9.63,0,0,0,14,0,11.32,11.32,0,0,0,2.9-8.17Q727,2386.78,724.14,2383.84Z" transform="translate(0.48 246)"/><path class="cls-1" d="M762,2354.89v59.59H748.26v-59.59Z" transform="translate(0.48 246)"/><path class="cls-1" d="M814.13,2395.32H783a9.36,9.36,0,0,0,2.69,6.4,8.24,8.24,0,0,0,5.84,2.22q5.16,0,7.17-4.35h14.65a20.07,20.07,0,0,1-4.06,8,20.52,20.52,0,0,1-7.37,5.56,23.72,23.72,0,0,1-9.91,2,24.05,24.05,0,0,1-11.75-2.82,20.08,20.08,0,0,1-8.06-8,24.89,24.89,0,0,1-2.89-12.24,25.21,25.21,0,0,1,2.85-12.24,19.83,19.83,0,0,1,8-8.06,24.34,24.34,0,0,1,11.83-2.81,24.09,24.09,0,0,1,11.6,2.73,19.63,19.63,0,0,1,7.93,7.82,23.63,23.63,0,0,1,2.86,11.83A35.48,35.48,0,0,1,814.13,2395.32Zm-13.85-7.65a7.1,7.1,0,0,0-2.42-5.64,8.91,8.91,0,0,0-6-2.09,8.74,8.74,0,0,0-5.84,2,8.92,8.92,0,0,0-2.93,5.72Z" transform="translate(0.48 246)"/><path class="cls-1" d="M847.26,2412.31a20.64,20.64,0,0,1-8.29-8,24.1,24.1,0,0,1-3-12.24,23.85,23.85,0,0,1,3.06-12.2,20.73,20.73,0,0,1,8.38-8.1,26.67,26.67,0,0,1,23.83,0,20.86,20.86,0,0,1,8.38,8.1,25.7,25.7,0,0,1,0,24.4,21,21,0,0,1-8.46,8.09,25.28,25.28,0,0,1-12,2.82A24.82,24.82,0,0,1,847.26,2412.31Zm18.61-12c1.85-1.93,2.77-4.7,2.77-8.29s-.9-6.36-2.69-8.3a9.15,9.15,0,0,0-13.33,0Q850,2386.55,850,2392c0,3.59.87,6.36,2.62,8.29a8.47,8.47,0,0,0,6.56,2.9A9,9,0,0,0,865.87,2400.31Z" transform="translate(0.48 246)"/><path class="cls-1" d="M912.53,2381h-7.41v33.49H891.35V2381h-5v-11.44h5v-1.29q0-8.3,4.75-12.6t13.93-4.31c1,0,1.78,0,2.26.08v11.68c-2.63-.16-4.48.21-5.56,1.13s-1.61,2.55-1.61,4.91v.4h7.41Z" transform="translate(0.48 246)"/><path class="cls-1" d="M937.33,2371.2A26,26,0,0,1,947.44,2361a29.35,29.35,0,0,1,14.69-3.66,28.06,28.06,0,0,1,17.23,5.32,25.5,25.5,0,0,1,9.59,14.49H973.81a12.33,12.33,0,0,0-4.79-5.4,13.54,13.54,0,0,0-7-1.85,13.17,13.17,0,0,0-10.31,4.43q-3.95,4.42-3.94,11.84t3.94,11.84a13.17,13.17,0,0,0,10.31,4.43,13.45,13.45,0,0,0,7-1.86,12.25,12.25,0,0,0,4.79-5.39H989a25.3,25.3,0,0,1-9.59,14.45,28.22,28.22,0,0,1-17.23,5.28,29.26,29.26,0,0,1-14.69-3.67A26,26,0,0,1,937.33,2401a32.56,32.56,0,0,1,0-29.84Z" transform="translate(0.48 246)"/><path class="cls-1" d="M1006,2412.31a20.67,20.67,0,0,1-8.3-8,24.1,24.1,0,0,1-3-12.24,23.85,23.85,0,0,1,3.06-12.2,20.8,20.8,0,0,1,8.38-8.1,26.67,26.67,0,0,1,23.83,0,20.73,20.73,0,0,1,8.38,8.1,23.85,23.85,0,0,1,3.06,12.2,23.6,23.6,0,0,1-3.1,12.2,21,21,0,0,1-8.46,8.09,25.24,25.24,0,0,1-11.95,2.82A24.76,24.76,0,0,1,1006,2412.31Zm18.6-12c1.85-1.93,2.78-4.7,2.78-8.29s-.9-6.36-2.7-8.3a9.15,9.15,0,0,0-13.33,0q-2.66,2.87-2.65,8.34c0,3.59.87,6.36,2.61,8.29a8.49,8.49,0,0,0,6.57,2.9A9,9,0,0,0,1024.58,2400.31Z" transform="translate(0.48 246)"/><path class="cls-1" d="M1088.68,2374.18q4.71,5.12,4.71,14.05v26.25H1079.7v-24.4a9.84,9.84,0,0,0-2.34-7,9.14,9.14,0,0,0-12.56,0c-1.56,1.66-2.33,4-2.33,7v24.4H1048.7v-44.93h13.77v6a14.41,14.41,0,0,1,5.63-4.71,18,18,0,0,1,8-1.73Q1084,2369.07,1088.68,2374.18Z" transform="translate(0.48 246)"/><path class="cls-1" d="M1128,2402.81v11.67h-7q-7.48,0-11.68-3.66t-4.18-12V2381h-5.48v-11.44h5.48v-11h13.77v11h9V2381h-9v18a3.78,3.78,0,0,0,1,2.9,4.73,4.73,0,0,0,3.22.89Z" transform="translate(0.48 246)"/><path class="cls-1" d="M1177.78,2395.32h-31.16a9.36,9.36,0,0,0,2.69,6.4,8.24,8.24,0,0,0,5.84,2.22q5.16,0,7.17-4.35H1177a20.07,20.07,0,0,1-4.06,8,20.52,20.52,0,0,1-7.37,5.56,23.72,23.72,0,0,1-9.91,2,24.05,24.05,0,0,1-11.75-2.82,20.08,20.08,0,0,1-8.06-8,24.89,24.89,0,0,1-2.89-12.24,25.21,25.21,0,0,1,2.85-12.24,19.83,19.83,0,0,1,8-8.06,24.34,24.34,0,0,1,11.83-2.81,24.09,24.09,0,0,1,11.6,2.73,19.63,19.63,0,0,1,7.93,7.82,23.63,23.63,0,0,1,2.86,11.83A35.48,35.48,0,0,1,1177.78,2395.32Zm-13.85-7.65a7.1,7.1,0,0,0-2.42-5.64,8.91,8.91,0,0,0-6-2.09,8.7,8.7,0,0,0-5.83,2,8.89,8.89,0,0,0-2.94,5.72Z" transform="translate(0.48 246)"/><path class="cls-1" d="M1225.25,2374.18q4.71,5.12,4.71,14.05v26.25h-13.69v-24.4a9.84,9.84,0,0,0-2.34-7,9.14,9.14,0,0,0-12.56,0,9.88,9.88,0,0,0-2.33,7v24.4h-13.77v-44.93H1199v6a14.41,14.41,0,0,1,5.63-4.71,18,18,0,0,1,8-1.73Q1220.54,2369.07,1225.25,2374.18Z" transform="translate(0.48 246)"/><path class="cls-1" d="M1264.59,2402.81v11.67h-7q-7.49,0-11.68-3.66t-4.18-12V2381h-5.48v-11.44h5.48v-11h13.77v11h9V2381h-9v18a3.78,3.78,0,0,0,1,2.9,4.73,4.73,0,0,0,3.22.89Z" transform="translate(0.48 246)"/><path class="cls-1" d="M1280.05,2413.12a18,18,0,0,1-7.25-5.52,14.49,14.49,0,0,1-3-7.85h13.61a5.19,5.19,0,0,0,2.17,3.78,7.67,7.67,0,0,0,4.75,1.45,6.8,6.8,0,0,0,4-1,3.1,3.1,0,0,0,1.41-2.62,3,3,0,0,0-2-2.86,40.59,40.59,0,0,0-6.53-2.05,61.38,61.38,0,0,1-8-2.38,14,14,0,0,1-5.56-3.94,10.8,10.8,0,0,1-2.33-7.29,12.39,12.39,0,0,1,2.13-7.05,14.34,14.34,0,0,1,6.28-5,24,24,0,0,1,9.87-1.85q8.45,0,13.33,4.18a16.33,16.33,0,0,1,5.59,11.12h-12.72a5.54,5.54,0,0,0-2-3.71,7.17,7.17,0,0,0-4.55-1.37,6.27,6.27,0,0,0-3.71.93,3,3,0,0,0-1.29,2.54,3.09,3.09,0,0,0,2.06,2.89,32.77,32.77,0,0,0,6.4,1.94,70.4,70.4,0,0,1,8.13,2.53,14.22,14.22,0,0,1,5.52,4,11.4,11.4,0,0,1,2.45,7.45,11.83,11.83,0,0,1-2.21,7,14.67,14.67,0,0,1-6.36,4.88,24.4,24.4,0,0,1-9.63,1.77A25.85,25.85,0,0,1,1280.05,2413.12Z" transform="translate(0.48 246)"/><path class="cls-1" d="M1317.69,2413a6.9,6.9,0,0,1-2.29-5.27,7.13,7.13,0,0,1,2.29-5.4,8.29,8.29,0,0,1,5.92-2.17,8.19,8.19,0,0,1,5.84,2.17,7.13,7.13,0,0,1,2.29,5.4,6.9,6.9,0,0,1-2.29,5.27,8.22,8.22,0,0,1-5.84,2.14A8.31,8.31,0,0,1,1317.69,2413Z" transform="translate(0.48 246)"/><rect class="cls-6" x="2020.88" y="2828.43" width="646.6" height="75.01"/><rect class="cls-7" x="2592.47" y="2828.43" width="75.01" height="75.01"/><polyline class="cls-8" points="2618.56 2843.11 2641.39 2865.94 2618.56 2888.76"/><text class="cls-9" transform="translate(2040.87 2881.21)">02<tspan x="50.44" y="0">&gt; VISION &amp; OUTLINES</tspan></text><rect class="cls-6" x="2020.88" y="2951.66" width="646.6" height="75.01"/><rect class="cls-7" x="2592.47" y="2951.66" width="75.01" height="75.01"/><polyline class="cls-8" points="2618.56 2966.34 2641.39 2989.17 2618.56 3011.99"/><text class="cls-9" transform="translate(2040.87 3004.44)">04<tspan x="54.03" y="0">&gt; ER DIAGRAM</tspan></text><rect class="cls-6" x="2020.88" y="3074.89" width="646.6" height="75.01"/><rect class="cls-7" x="2592.47" y="3074.89" width="75.01" height="75.01"/><polyline class="cls-8" points="2618.56 3089.57 2641.39 3112.4 2618.56 3135.22"/><text class="cls-9" transform="translate(2040.87 3127.67)">02<tspan x="50.44" y="0">&gt; VISION &amp; OUTLINES</tspan></text><rect class="cls-6" x="2020.88" y="3198.12" width="646.6" height="75.01"/><rect class="cls-7" x="2592.47" y="3198.12" width="75.01" height="75.01"/><polyline class="cls-8" points="2618.56 3212.8 2641.39 3235.63 2618.56 3258.45"/><text class="cls-9" transform="translate(2040.87 3250.9)">02<tspan x="50.44" y="0">&gt; VISION &amp; OUTLINES</tspan></text><rect class="cls-10" x="113.1" y="2791.58" width="782.68" height="75.01"/><rect class="cls-11" x="820.77" y="2791.58" width="75.01" height="75.01"/><polyline class="cls-8" points="846.87 2806.26 869.69 2829.08 846.87 2851.91"/><text class="cls-12" transform="translate(133.09 2844.36)">01<tspan x="38.3" y="0">&gt; PROBLEM</tspan></text><rect class="cls-10" x="113.1" y="2914.81" width="782.68" height="75.01"/><rect class="cls-11" x="820.77" y="2914.81" width="75.01" height="75.01"/><polyline class="cls-8" points="846.87 2929.49 869.69 2952.31 846.87 2975.14"/><text class="cls-12" transform="translate(133.09 2967.59)">03<tspan x="47.31" y="0">&gt; REQUIREMENTS</tspan></text><rect class="cls-10" x="113.1" y="3038.04" width="782.68" height="75.01"/><rect class="cls-11" x="820.77" y="3038.04" width="75.01" height="75.01"/><polyline class="cls-8" points="846.87 3052.72 869.69 3075.54 846.87 3098.36"/><text class="cls-12" transform="translate(133.09 3090.82)">05<tspan x="49.02" y="0">&gt; RELATIONAL MODEL</tspan></text><rect class="cls-10" x="113.1" y="3161.27" width="782.68" height="75.01"/><rect class="cls-11" x="820.77" y="3161.27" width="75.01" height="75.01"/><polyline class="cls-8" points="846.87 3175.95 869.69 3198.77 846.87 3221.59"/><text class="cls-12" transform="translate(133.09 3214.05)">01<tspan x="38.3" y="0">&gt; PROBLEM</tspan></text><rect class="cls-10" x="113.1" y="3284.5" width="782.68" height="75.01"/><rect class="cls-11" x="820.77" y="3284.5" width="75.01" height="75.01"/><polyline class="cls-8" points="846.87 3299.18 869.69 3322 846.87 3344.82"/><text class="cls-12" transform="translate(133.09 3337.28)">01<tspan x="38.3" y="0">&gt; PROBLEM</tspan></text><rect class="cls-10" x="1025.18" y="2791.58" width="782.68" height="75.01"/><rect class="cls-11" x="1732.85" y="2791.58" width="75.01" height="75.01"/><polyline class="cls-8" points="1758.94 2806.26 1781.77 2829.08 1758.94 2851.91"/><text class="cls-12" transform="translate(1045.17 2844.36)">02<tspan x="46.36" y="0">&gt; VISION &amp; OUTLINES</tspan></text><rect class="cls-10" x="1025.18" y="2914.81" width="782.68" height="75.01"/><rect class="cls-11" x="1732.85" y="2914.81" width="75.01" height="75.01"/><polyline class="cls-8" points="1758.94 2929.49 1781.77 2952.31 1758.94 2975.14"/><text class="cls-12" transform="translate(1045.17 2967.59)">04<tspan x="49.67" y="0">&gt; ER DIAGRAM</tspan></text><rect class="cls-10" x="1025.18" y="3038.04" width="782.68" height="75.01"/><rect class="cls-11" x="1732.85" y="3038.04" width="75.01" height="75.01"/><polyline class="cls-8" points="1758.94 3052.72 1781.77 3075.54 1758.94 3098.36"/><text class="cls-12" transform="translate(1045.17 3090.82)">05<tspan x="49.02" y="0">&gt; RELATIONAL MODEL</tspan></text><rect class="cls-10" x="1025.18" y="3161.27" width="782.68" height="75.01"/><rect class="cls-11" x="1732.85" y="3161.27" width="75.01" height="75.01"/><polyline class="cls-8" points="1758.94 3175.95 1781.77 3198.77 1758.94 3221.59"/><text class="cls-12" transform="translate(1045.17 3214.05)">01<tspan x="38.3" y="0">&gt; PROBLEM</tspan></text><rect class="cls-10" x="1025.18" y="3284.5" width="782.68" height="75.01"/><rect class="cls-11" x="1732.85" y="3284.5" width="75.01" height="75.01"/><polyline class="cls-8" points="1758.94 3299.18 1781.77 3322 1758.94 3344.82"/><text class="cls-12" transform="translate(1045.17 3337.28)">01<tspan x="38.3" y="0">&gt; PROBLEM</tspan></text><rect class="cls-6" x="2020.88" y="3321.35" width="646.6" height="75.01"/><rect class="cls-7" x="2592.47" y="3321.35" width="75.01" height="75.01"/><polyline class="cls-8" points="2618.56 3336.03 2641.39 3358.86 2618.56 3381.68"/><text class="cls-9" transform="translate(2040.87 3374.13)">02<tspan x="50.44" y="0">&gt; CONCLUSION</tspan></text><rect class="cls-13" x="121.78" y="3768.96" width="1676.43" height="790.57"/><text class="cls-14" transform="translate(132.14 3878.33)">01</text><text class="cls-15" transform="translate(265.73 4010.33)">Social media platforms<tspan class="cls-16"><tspan x="0" y="91">are built around various aspects.</tspan></tspan></text><rect class="cls-13" x="122.26" y="4874.88" width="1676.43" height="790.57"/><text class="cls-14" transform="translate(132.62 4984.25)">01</text><text class="cls-17" transform="translate(430.28 5328.18)">a platform centered on insightful and valuable content.</text><text class="cls-18" transform="translate(354.82 5252.93)">But what about a new platform?</text><text class="cls-19" transform="translate(2162.27 4208.76)">Facebook: engagement.</text><text class="cls-19" transform="translate(2162.27 4265.37)">Linkedin: networking and connections.</text><text class="cls-19" transform="translate(2162.27 4312.53)">Twitter: news and discussions.</text><text class="cls-19" transform="translate(2162.27 4363.48)">TikTok: short-form video entertainment.</text><text class="cls-19" transform="translate(2162.27 4420.08)">Instagram: visuals and reels.</text><text class="cls-19" transform="translate(2162.27 4482.35)">Reddit: subcommunities.</text><text class="cls-20" transform="translate(786.67 1746.31)">CS &amp; Math Student</text></svg>